<mxfile host="Electron" modified="2023-09-17T20:44:28.556Z" agent="Mozilla/5.0 (Windows NT 10.0; Win64; x64) AppleWebKit/537.36 (KHTML, like Gecko) draw.io/21.6.8 Chrome/114.0.5735.289 Electron/25.5.0 Safari/537.36" etag="GNfwAqf_DxJRBJ5NBtAp" version="21.6.8" type="device" pages="5">
  <diagram id="C5RBs43oDa-KdzZeNtuy" name="DL matrix">
    <mxGraphModel dx="1497" dy="887" grid="1" gridSize="10" guides="1" tooltips="1" connect="1" arrows="1" fold="1" page="1" pageScale="1" pageWidth="827" pageHeight="1169" math="0" shadow="0">
      <root>
        <mxCell id="WIyWlLk6GJQsqaUBKTNV-0" />
        <mxCell id="WIyWlLk6GJQsqaUBKTNV-1" parent="WIyWlLk6GJQsqaUBKTNV-0" />
        <mxCell id="WIyWlLk6GJQsqaUBKTNV-2" value="" style="rounded=0;html=1;jettySize=auto;orthogonalLoop=1;fontSize=11;endArrow=block;endFill=0;endSize=8;strokeWidth=1;shadow=0;labelBackgroundColor=none;edgeStyle=orthogonalEdgeStyle;" parent="WIyWlLk6GJQsqaUBKTNV-1" source="WIyWlLk6GJQsqaUBKTNV-3" target="WIyWlLk6GJQsqaUBKTNV-6" edge="1">
          <mxGeometry relative="1" as="geometry" />
        </mxCell>
        <mxCell id="WIyWlLk6GJQsqaUBKTNV-3" value="Начало" style="rounded=1;whiteSpace=wrap;html=1;fontSize=12;glass=0;strokeWidth=1;shadow=0;" parent="WIyWlLk6GJQsqaUBKTNV-1" vertex="1">
          <mxGeometry x="160" y="80" width="120" height="40" as="geometry" />
        </mxCell>
        <mxCell id="Qh6SfBG-fClc62QtNBkS-0" style="edgeStyle=orthogonalEdgeStyle;rounded=0;orthogonalLoop=1;jettySize=auto;html=1;exitX=0.5;exitY=1;exitDx=0;exitDy=0;" edge="1" parent="WIyWlLk6GJQsqaUBKTNV-1" source="WIyWlLk6GJQsqaUBKTNV-6" target="WIyWlLk6GJQsqaUBKTNV-10">
          <mxGeometry relative="1" as="geometry" />
        </mxCell>
        <mxCell id="WIyWlLk6GJQsqaUBKTNV-6" value="n = длина s1&lt;br&gt;m = длина s2" style="rhombus;whiteSpace=wrap;html=1;shadow=0;fontFamily=Helvetica;fontSize=12;align=center;strokeWidth=1;spacing=6;spacingTop=-4;" parent="WIyWlLk6GJQsqaUBKTNV-1" vertex="1">
          <mxGeometry x="170" y="140" width="100" height="80" as="geometry" />
        </mxCell>
        <mxCell id="Qh6SfBG-fClc62QtNBkS-2" style="edgeStyle=orthogonalEdgeStyle;rounded=0;orthogonalLoop=1;jettySize=auto;html=1;exitX=1;exitY=0.5;exitDx=0;exitDy=0;entryX=0.5;entryY=0;entryDx=0;entryDy=0;" edge="1" parent="WIyWlLk6GJQsqaUBKTNV-1" source="WIyWlLk6GJQsqaUBKTNV-10" target="Qh6SfBG-fClc62QtNBkS-1">
          <mxGeometry relative="1" as="geometry" />
        </mxCell>
        <mxCell id="Qh6SfBG-fClc62QtNBkS-9" style="edgeStyle=orthogonalEdgeStyle;rounded=0;orthogonalLoop=1;jettySize=auto;html=1;exitX=0;exitY=0.5;exitDx=0;exitDy=0;entryX=0.5;entryY=0;entryDx=0;entryDy=0;" edge="1" parent="WIyWlLk6GJQsqaUBKTNV-1" source="WIyWlLk6GJQsqaUBKTNV-10" target="Qh6SfBG-fClc62QtNBkS-8">
          <mxGeometry relative="1" as="geometry" />
        </mxCell>
        <mxCell id="WIyWlLk6GJQsqaUBKTNV-10" value="n == 0&amp;nbsp;&lt;br&gt;или m == 0" style="rhombus;whiteSpace=wrap;html=1;shadow=0;fontFamily=Helvetica;fontSize=12;align=center;strokeWidth=1;spacing=6;spacingTop=-4;" parent="WIyWlLk6GJQsqaUBKTNV-1" vertex="1">
          <mxGeometry x="170" y="250" width="100" height="80" as="geometry" />
        </mxCell>
        <mxCell id="Qh6SfBG-fClc62QtNBkS-4" style="edgeStyle=orthogonalEdgeStyle;rounded=0;orthogonalLoop=1;jettySize=auto;html=1;exitX=0;exitY=0.5;exitDx=0;exitDy=0;entryX=0.5;entryY=0;entryDx=0;entryDy=0;" edge="1" parent="WIyWlLk6GJQsqaUBKTNV-1" source="Qh6SfBG-fClc62QtNBkS-1" target="Qh6SfBG-fClc62QtNBkS-3">
          <mxGeometry relative="1" as="geometry" />
        </mxCell>
        <mxCell id="Qh6SfBG-fClc62QtNBkS-6" style="edgeStyle=orthogonalEdgeStyle;rounded=0;orthogonalLoop=1;jettySize=auto;html=1;exitX=1;exitY=0.5;exitDx=0;exitDy=0;" edge="1" parent="WIyWlLk6GJQsqaUBKTNV-1" source="Qh6SfBG-fClc62QtNBkS-1" target="Qh6SfBG-fClc62QtNBkS-5">
          <mxGeometry relative="1" as="geometry" />
        </mxCell>
        <mxCell id="Qh6SfBG-fClc62QtNBkS-7" value="Да" style="edgeLabel;html=1;align=center;verticalAlign=middle;resizable=0;points=[];" vertex="1" connectable="0" parent="Qh6SfBG-fClc62QtNBkS-6">
          <mxGeometry x="-0.1767" y="2" relative="1" as="geometry">
            <mxPoint x="-16" y="-40" as="offset" />
          </mxGeometry>
        </mxCell>
        <mxCell id="Qh6SfBG-fClc62QtNBkS-1" value="n != 0" style="rhombus;whiteSpace=wrap;html=1;" vertex="1" parent="WIyWlLk6GJQsqaUBKTNV-1">
          <mxGeometry x="374" y="320" width="80" height="70" as="geometry" />
        </mxCell>
        <mxCell id="Qh6SfBG-fClc62QtNBkS-15" style="edgeStyle=orthogonalEdgeStyle;rounded=0;orthogonalLoop=1;jettySize=auto;html=1;exitX=0.5;exitY=1;exitDx=0;exitDy=0;entryX=0.5;entryY=0;entryDx=0;entryDy=0;" edge="1" parent="WIyWlLk6GJQsqaUBKTNV-1" source="Qh6SfBG-fClc62QtNBkS-3" target="Qh6SfBG-fClc62QtNBkS-14">
          <mxGeometry relative="1" as="geometry" />
        </mxCell>
        <mxCell id="Qh6SfBG-fClc62QtNBkS-3" value="m != 0" style="rhombus;whiteSpace=wrap;html=1;" vertex="1" parent="WIyWlLk6GJQsqaUBKTNV-1">
          <mxGeometry x="280" y="400" width="80" height="70" as="geometry" />
        </mxCell>
        <mxCell id="Qh6SfBG-fClc62QtNBkS-40" style="edgeStyle=orthogonalEdgeStyle;rounded=0;orthogonalLoop=1;jettySize=auto;html=1;exitX=0.5;exitY=1;exitDx=0;exitDy=0;entryX=0.5;entryY=0;entryDx=0;entryDy=0;" edge="1" parent="WIyWlLk6GJQsqaUBKTNV-1" source="Qh6SfBG-fClc62QtNBkS-5" target="Qh6SfBG-fClc62QtNBkS-37">
          <mxGeometry relative="1" as="geometry">
            <Array as="points">
              <mxPoint x="514" y="1230" />
              <mxPoint x="200" y="1230" />
            </Array>
          </mxGeometry>
        </mxCell>
        <mxCell id="Qh6SfBG-fClc62QtNBkS-5" value="Вернуть n" style="rounded=0;whiteSpace=wrap;html=1;" vertex="1" parent="WIyWlLk6GJQsqaUBKTNV-1">
          <mxGeometry x="454" y="500" width="120" height="60" as="geometry" />
        </mxCell>
        <mxCell id="Qh6SfBG-fClc62QtNBkS-11" style="edgeStyle=orthogonalEdgeStyle;rounded=0;orthogonalLoop=1;jettySize=auto;html=1;exitX=0.5;exitY=1;exitDx=0;exitDy=0;entryX=0.5;entryY=0;entryDx=0;entryDy=0;" edge="1" parent="WIyWlLk6GJQsqaUBKTNV-1" source="Qh6SfBG-fClc62QtNBkS-8" target="Qh6SfBG-fClc62QtNBkS-10">
          <mxGeometry relative="1" as="geometry" />
        </mxCell>
        <mxCell id="Qh6SfBG-fClc62QtNBkS-8" value="Создать матрицу matrix[n + 1][m + 1]" style="rhombus;whiteSpace=wrap;html=1;" vertex="1" parent="WIyWlLk6GJQsqaUBKTNV-1">
          <mxGeometry x="-50" y="320" width="140" height="90" as="geometry" />
        </mxCell>
        <mxCell id="Qh6SfBG-fClc62QtNBkS-16" style="edgeStyle=orthogonalEdgeStyle;rounded=0;orthogonalLoop=1;jettySize=auto;html=1;exitX=0.5;exitY=1;exitDx=0;exitDy=0;entryX=0.5;entryY=0;entryDx=0;entryDy=0;" edge="1" parent="WIyWlLk6GJQsqaUBKTNV-1" source="Qh6SfBG-fClc62QtNBkS-10" target="Qh6SfBG-fClc62QtNBkS-12">
          <mxGeometry relative="1" as="geometry" />
        </mxCell>
        <mxCell id="Qh6SfBG-fClc62QtNBkS-38" style="edgeStyle=orthogonalEdgeStyle;rounded=0;orthogonalLoop=1;jettySize=auto;html=1;exitX=0;exitY=0.5;exitDx=0;exitDy=0;entryX=0.5;entryY=0;entryDx=0;entryDy=0;" edge="1" parent="WIyWlLk6GJQsqaUBKTNV-1" source="Qh6SfBG-fClc62QtNBkS-10" target="Qh6SfBG-fClc62QtNBkS-37">
          <mxGeometry relative="1" as="geometry">
            <Array as="points">
              <mxPoint x="-260" y="470" />
              <mxPoint x="-260" y="1230" />
            </Array>
          </mxGeometry>
        </mxCell>
        <mxCell id="Qh6SfBG-fClc62QtNBkS-10" value="Цикл по i&lt;br&gt;1, n + 1" style="rhombus;whiteSpace=wrap;html=1;" vertex="1" parent="WIyWlLk6GJQsqaUBKTNV-1">
          <mxGeometry x="-30" y="430" width="100" height="80" as="geometry" />
        </mxCell>
        <mxCell id="Qh6SfBG-fClc62QtNBkS-19" style="edgeStyle=orthogonalEdgeStyle;rounded=0;orthogonalLoop=1;jettySize=auto;html=1;exitX=0.5;exitY=1;exitDx=0;exitDy=0;entryX=0.5;entryY=0;entryDx=0;entryDy=0;" edge="1" parent="WIyWlLk6GJQsqaUBKTNV-1" source="Qh6SfBG-fClc62QtNBkS-12" target="Qh6SfBG-fClc62QtNBkS-18">
          <mxGeometry relative="1" as="geometry" />
        </mxCell>
        <mxCell id="Qh6SfBG-fClc62QtNBkS-32" style="edgeStyle=orthogonalEdgeStyle;rounded=0;orthogonalLoop=1;jettySize=auto;html=1;exitX=1;exitY=0.5;exitDx=0;exitDy=0;entryX=1;entryY=0.5;entryDx=0;entryDy=0;" edge="1" parent="WIyWlLk6GJQsqaUBKTNV-1" source="Qh6SfBG-fClc62QtNBkS-12" target="Qh6SfBG-fClc62QtNBkS-10">
          <mxGeometry relative="1" as="geometry">
            <Array as="points">
              <mxPoint x="110" y="570" />
              <mxPoint x="110" y="470" />
            </Array>
          </mxGeometry>
        </mxCell>
        <mxCell id="Qh6SfBG-fClc62QtNBkS-12" value="Цикл по j&lt;br&gt;1, m + 1" style="rhombus;whiteSpace=wrap;html=1;" vertex="1" parent="WIyWlLk6GJQsqaUBKTNV-1">
          <mxGeometry x="-30" y="530" width="100" height="80" as="geometry" />
        </mxCell>
        <mxCell id="Qh6SfBG-fClc62QtNBkS-13" value="Да" style="edgeLabel;html=1;align=center;verticalAlign=middle;resizable=0;points=[];" vertex="1" connectable="0" parent="WIyWlLk6GJQsqaUBKTNV-1">
          <mxGeometry x="502.0588235294115" y="355" as="geometry">
            <mxPoint x="-109" y="-80" as="offset" />
          </mxGeometry>
        </mxCell>
        <mxCell id="Qh6SfBG-fClc62QtNBkS-39" style="edgeStyle=orthogonalEdgeStyle;rounded=0;orthogonalLoop=1;jettySize=auto;html=1;exitX=0.5;exitY=1;exitDx=0;exitDy=0;entryX=0.5;entryY=0;entryDx=0;entryDy=0;" edge="1" parent="WIyWlLk6GJQsqaUBKTNV-1" source="Qh6SfBG-fClc62QtNBkS-14" target="Qh6SfBG-fClc62QtNBkS-37">
          <mxGeometry relative="1" as="geometry">
            <Array as="points">
              <mxPoint x="320" y="1230" />
              <mxPoint x="200" y="1230" />
            </Array>
          </mxGeometry>
        </mxCell>
        <mxCell id="Qh6SfBG-fClc62QtNBkS-14" value="Вернуть m" style="rounded=0;whiteSpace=wrap;html=1;" vertex="1" parent="WIyWlLk6GJQsqaUBKTNV-1">
          <mxGeometry x="260" y="500" width="120" height="60" as="geometry" />
        </mxCell>
        <mxCell id="Qh6SfBG-fClc62QtNBkS-22" style="edgeStyle=orthogonalEdgeStyle;rounded=0;orthogonalLoop=1;jettySize=auto;html=1;exitX=1;exitY=0.5;exitDx=0;exitDy=0;entryX=0.5;entryY=0;entryDx=0;entryDy=0;" edge="1" parent="WIyWlLk6GJQsqaUBKTNV-1" source="Qh6SfBG-fClc62QtNBkS-18" target="Qh6SfBG-fClc62QtNBkS-20">
          <mxGeometry relative="1" as="geometry" />
        </mxCell>
        <mxCell id="Qh6SfBG-fClc62QtNBkS-23" style="edgeStyle=orthogonalEdgeStyle;rounded=0;orthogonalLoop=1;jettySize=auto;html=1;exitX=0;exitY=0.5;exitDx=0;exitDy=0;entryX=0.5;entryY=0;entryDx=0;entryDy=0;" edge="1" parent="WIyWlLk6GJQsqaUBKTNV-1" source="Qh6SfBG-fClc62QtNBkS-18" target="Qh6SfBG-fClc62QtNBkS-21">
          <mxGeometry relative="1" as="geometry" />
        </mxCell>
        <mxCell id="Qh6SfBG-fClc62QtNBkS-18" value="S1[i - 1]&amp;nbsp; != s2[j - 1]" style="rhombus;whiteSpace=wrap;html=1;" vertex="1" parent="WIyWlLk6GJQsqaUBKTNV-1">
          <mxGeometry x="-45" y="630" width="130" height="100" as="geometry" />
        </mxCell>
        <mxCell id="Qh6SfBG-fClc62QtNBkS-27" style="edgeStyle=orthogonalEdgeStyle;rounded=0;orthogonalLoop=1;jettySize=auto;html=1;exitX=0.5;exitY=1;exitDx=0;exitDy=0;entryX=0.5;entryY=0;entryDx=0;entryDy=0;" edge="1" parent="WIyWlLk6GJQsqaUBKTNV-1" source="Qh6SfBG-fClc62QtNBkS-20" target="Qh6SfBG-fClc62QtNBkS-25">
          <mxGeometry relative="1" as="geometry">
            <mxPoint x="20" y="900" as="targetPoint" />
          </mxGeometry>
        </mxCell>
        <mxCell id="Qh6SfBG-fClc62QtNBkS-20" value="change = 1" style="rounded=0;whiteSpace=wrap;html=1;" vertex="1" parent="WIyWlLk6GJQsqaUBKTNV-1">
          <mxGeometry x="90" y="720" width="120" height="60" as="geometry" />
        </mxCell>
        <mxCell id="Qh6SfBG-fClc62QtNBkS-26" style="edgeStyle=orthogonalEdgeStyle;rounded=0;orthogonalLoop=1;jettySize=auto;html=1;exitX=0.5;exitY=1;exitDx=0;exitDy=0;" edge="1" parent="WIyWlLk6GJQsqaUBKTNV-1" source="Qh6SfBG-fClc62QtNBkS-21" target="Qh6SfBG-fClc62QtNBkS-25">
          <mxGeometry relative="1" as="geometry" />
        </mxCell>
        <mxCell id="Qh6SfBG-fClc62QtNBkS-21" value="change = 0" style="rounded=0;whiteSpace=wrap;html=1;" vertex="1" parent="WIyWlLk6GJQsqaUBKTNV-1">
          <mxGeometry x="-170" y="720" width="120" height="60" as="geometry" />
        </mxCell>
        <mxCell id="Qh6SfBG-fClc62QtNBkS-24" value="Да" style="edgeLabel;html=1;align=center;verticalAlign=middle;resizable=0;points=[];" vertex="1" connectable="0" parent="WIyWlLk6GJQsqaUBKTNV-1">
          <mxGeometry x="140" y="669.995882352941" as="geometry" />
        </mxCell>
        <mxCell id="Qh6SfBG-fClc62QtNBkS-29" style="edgeStyle=orthogonalEdgeStyle;rounded=0;orthogonalLoop=1;jettySize=auto;html=1;exitX=0.5;exitY=1;exitDx=0;exitDy=0;entryX=0.5;entryY=0;entryDx=0;entryDy=0;" edge="1" parent="WIyWlLk6GJQsqaUBKTNV-1" source="Qh6SfBG-fClc62QtNBkS-25" target="Qh6SfBG-fClc62QtNBkS-28">
          <mxGeometry relative="1" as="geometry" />
        </mxCell>
        <mxCell id="Qh6SfBG-fClc62QtNBkS-25" value="ret = min(matrix[i - 1][j] + 1, &lt;br&gt;matrix[i][j - 1] + 1, &lt;br&gt;matrix[i - 1][j - 1] + change)" style="rounded=0;whiteSpace=wrap;html=1;" vertex="1" parent="WIyWlLk6GJQsqaUBKTNV-1">
          <mxGeometry x="-70" y="840" width="180" height="90" as="geometry" />
        </mxCell>
        <mxCell id="Qh6SfBG-fClc62QtNBkS-33" style="edgeStyle=orthogonalEdgeStyle;rounded=0;orthogonalLoop=1;jettySize=auto;html=1;exitX=1;exitY=0.5;exitDx=0;exitDy=0;entryX=0.5;entryY=0;entryDx=0;entryDy=0;" edge="1" parent="WIyWlLk6GJQsqaUBKTNV-1" source="Qh6SfBG-fClc62QtNBkS-28" target="Qh6SfBG-fClc62QtNBkS-31">
          <mxGeometry relative="1" as="geometry" />
        </mxCell>
        <mxCell id="Qh6SfBG-fClc62QtNBkS-34" style="edgeStyle=orthogonalEdgeStyle;rounded=0;orthogonalLoop=1;jettySize=auto;html=1;exitX=0;exitY=0.5;exitDx=0;exitDy=0;entryX=0.5;entryY=0;entryDx=0;entryDy=0;" edge="1" parent="WIyWlLk6GJQsqaUBKTNV-1" source="Qh6SfBG-fClc62QtNBkS-28" target="Qh6SfBG-fClc62QtNBkS-30">
          <mxGeometry relative="1" as="geometry" />
        </mxCell>
        <mxCell id="Qh6SfBG-fClc62QtNBkS-28" value="(i &amp;gt; 1 и j &amp;gt; 1),&lt;br&gt;s1[i - 1] == s2[j - 2], &lt;br&gt;str1[i-2] == str2[j-1]" style="rhombus;whiteSpace=wrap;html=1;" vertex="1" parent="WIyWlLk6GJQsqaUBKTNV-1">
          <mxGeometry x="-75" y="980" width="190" height="120" as="geometry" />
        </mxCell>
        <mxCell id="Qh6SfBG-fClc62QtNBkS-36" style="edgeStyle=orthogonalEdgeStyle;rounded=0;orthogonalLoop=1;jettySize=auto;html=1;exitX=0.5;exitY=1;exitDx=0;exitDy=0;entryX=0;entryY=0.5;entryDx=0;entryDy=0;" edge="1" parent="WIyWlLk6GJQsqaUBKTNV-1" source="Qh6SfBG-fClc62QtNBkS-30" target="Qh6SfBG-fClc62QtNBkS-12">
          <mxGeometry relative="1" as="geometry">
            <Array as="points">
              <mxPoint x="-120" y="1180" />
              <mxPoint x="-230" y="1180" />
              <mxPoint x="-230" y="570" />
            </Array>
          </mxGeometry>
        </mxCell>
        <mxCell id="Qh6SfBG-fClc62QtNBkS-30" value="Вернуть ret" style="rounded=0;whiteSpace=wrap;html=1;" vertex="1" parent="WIyWlLk6GJQsqaUBKTNV-1">
          <mxGeometry x="-180" y="1100" width="120" height="60" as="geometry" />
        </mxCell>
        <mxCell id="Qh6SfBG-fClc62QtNBkS-35" style="edgeStyle=orthogonalEdgeStyle;rounded=0;orthogonalLoop=1;jettySize=auto;html=1;exitX=0.5;exitY=1;exitDx=0;exitDy=0;entryX=0;entryY=0.5;entryDx=0;entryDy=0;" edge="1" parent="WIyWlLk6GJQsqaUBKTNV-1" source="Qh6SfBG-fClc62QtNBkS-31" target="Qh6SfBG-fClc62QtNBkS-12">
          <mxGeometry relative="1" as="geometry">
            <Array as="points">
              <mxPoint x="170" y="1180" />
              <mxPoint x="-230" y="1180" />
              <mxPoint x="-230" y="570" />
            </Array>
          </mxGeometry>
        </mxCell>
        <mxCell id="Qh6SfBG-fClc62QtNBkS-31" value="Вернуть &lt;br&gt;min(ret, matrix[i-2][j-2] + 1" style="rounded=0;whiteSpace=wrap;html=1;" vertex="1" parent="WIyWlLk6GJQsqaUBKTNV-1">
          <mxGeometry x="110" y="1100" width="120" height="60" as="geometry" />
        </mxCell>
        <mxCell id="Qh6SfBG-fClc62QtNBkS-37" value="Конец" style="rounded=1;whiteSpace=wrap;html=1;fontSize=12;glass=0;strokeWidth=1;shadow=0;" vertex="1" parent="WIyWlLk6GJQsqaUBKTNV-1">
          <mxGeometry x="140" y="1260" width="120" height="40" as="geometry" />
        </mxCell>
      </root>
    </mxGraphModel>
  </diagram>
  <diagram id="1sGg9dJJjuLNVZPzXd94" name="DL recursive">
    <mxGraphModel dx="1379" dy="731" grid="1" gridSize="10" guides="1" tooltips="1" connect="1" arrows="1" fold="1" page="1" pageScale="1" pageWidth="827" pageHeight="1169" math="0" shadow="0">
      <root>
        <mxCell id="0" />
        <mxCell id="1" parent="0" />
        <mxCell id="PJBWQAxb6iHvlRisbxaj-1" value="" style="rounded=0;html=1;jettySize=auto;orthogonalLoop=1;fontSize=11;endArrow=block;endFill=0;endSize=8;strokeWidth=1;shadow=0;labelBackgroundColor=none;edgeStyle=orthogonalEdgeStyle;" edge="1" parent="1" source="PJBWQAxb6iHvlRisbxaj-2" target="PJBWQAxb6iHvlRisbxaj-4">
          <mxGeometry relative="1" as="geometry" />
        </mxCell>
        <mxCell id="PJBWQAxb6iHvlRisbxaj-2" value="Начало" style="rounded=1;whiteSpace=wrap;html=1;fontSize=12;glass=0;strokeWidth=1;shadow=0;" vertex="1" parent="1">
          <mxGeometry x="160" y="80" width="120" height="40" as="geometry" />
        </mxCell>
        <mxCell id="PJBWQAxb6iHvlRisbxaj-3" style="edgeStyle=orthogonalEdgeStyle;rounded=0;orthogonalLoop=1;jettySize=auto;html=1;exitX=0.5;exitY=1;exitDx=0;exitDy=0;" edge="1" parent="1" source="PJBWQAxb6iHvlRisbxaj-4" target="PJBWQAxb6iHvlRisbxaj-7">
          <mxGeometry relative="1" as="geometry" />
        </mxCell>
        <mxCell id="PJBWQAxb6iHvlRisbxaj-4" value="n = длина s1&lt;br&gt;m = длина s2" style="rhombus;whiteSpace=wrap;html=1;shadow=0;fontFamily=Helvetica;fontSize=12;align=center;strokeWidth=1;spacing=6;spacingTop=-4;" vertex="1" parent="1">
          <mxGeometry x="170" y="140" width="100" height="80" as="geometry" />
        </mxCell>
        <mxCell id="PJBWQAxb6iHvlRisbxaj-5" style="edgeStyle=orthogonalEdgeStyle;rounded=0;orthogonalLoop=1;jettySize=auto;html=1;exitX=1;exitY=0.5;exitDx=0;exitDy=0;entryX=0.5;entryY=0;entryDx=0;entryDy=0;" edge="1" parent="1" source="PJBWQAxb6iHvlRisbxaj-7" target="PJBWQAxb6iHvlRisbxaj-11">
          <mxGeometry relative="1" as="geometry" />
        </mxCell>
        <mxCell id="PJBWQAxb6iHvlRisbxaj-6" style="edgeStyle=orthogonalEdgeStyle;rounded=0;orthogonalLoop=1;jettySize=auto;html=1;exitX=0;exitY=0.5;exitDx=0;exitDy=0;entryX=0.5;entryY=0;entryDx=0;entryDy=0;" edge="1" parent="1" source="PJBWQAxb6iHvlRisbxaj-7" target="PJBWQAxb6iHvlRisbxaj-29">
          <mxGeometry relative="1" as="geometry">
            <mxPoint x="20" y="320" as="targetPoint" />
          </mxGeometry>
        </mxCell>
        <mxCell id="PJBWQAxb6iHvlRisbxaj-7" value="n == 0&amp;nbsp;&lt;br&gt;или m == 0" style="rhombus;whiteSpace=wrap;html=1;shadow=0;fontFamily=Helvetica;fontSize=12;align=center;strokeWidth=1;spacing=6;spacingTop=-4;" vertex="1" parent="1">
          <mxGeometry x="170" y="250" width="100" height="80" as="geometry" />
        </mxCell>
        <mxCell id="PJBWQAxb6iHvlRisbxaj-8" style="edgeStyle=orthogonalEdgeStyle;rounded=0;orthogonalLoop=1;jettySize=auto;html=1;exitX=0;exitY=0.5;exitDx=0;exitDy=0;entryX=0.5;entryY=0;entryDx=0;entryDy=0;" edge="1" parent="1" source="PJBWQAxb6iHvlRisbxaj-11" target="PJBWQAxb6iHvlRisbxaj-13">
          <mxGeometry relative="1" as="geometry" />
        </mxCell>
        <mxCell id="PJBWQAxb6iHvlRisbxaj-9" style="edgeStyle=orthogonalEdgeStyle;rounded=0;orthogonalLoop=1;jettySize=auto;html=1;exitX=1;exitY=0.5;exitDx=0;exitDy=0;" edge="1" parent="1" source="PJBWQAxb6iHvlRisbxaj-11" target="PJBWQAxb6iHvlRisbxaj-15">
          <mxGeometry relative="1" as="geometry" />
        </mxCell>
        <mxCell id="PJBWQAxb6iHvlRisbxaj-10" value="Да" style="edgeLabel;html=1;align=center;verticalAlign=middle;resizable=0;points=[];" vertex="1" connectable="0" parent="PJBWQAxb6iHvlRisbxaj-9">
          <mxGeometry x="-0.1767" y="2" relative="1" as="geometry">
            <mxPoint x="-16" y="-40" as="offset" />
          </mxGeometry>
        </mxCell>
        <mxCell id="PJBWQAxb6iHvlRisbxaj-11" value="n != 0" style="rhombus;whiteSpace=wrap;html=1;" vertex="1" parent="1">
          <mxGeometry x="374" y="320" width="80" height="70" as="geometry" />
        </mxCell>
        <mxCell id="PJBWQAxb6iHvlRisbxaj-12" style="edgeStyle=orthogonalEdgeStyle;rounded=0;orthogonalLoop=1;jettySize=auto;html=1;exitX=0.5;exitY=1;exitDx=0;exitDy=0;entryX=0.5;entryY=0;entryDx=0;entryDy=0;" edge="1" parent="1" source="PJBWQAxb6iHvlRisbxaj-13" target="PJBWQAxb6iHvlRisbxaj-26">
          <mxGeometry relative="1" as="geometry" />
        </mxCell>
        <mxCell id="PJBWQAxb6iHvlRisbxaj-13" value="m != 0" style="rhombus;whiteSpace=wrap;html=1;" vertex="1" parent="1">
          <mxGeometry x="280" y="400" width="80" height="70" as="geometry" />
        </mxCell>
        <mxCell id="PJBWQAxb6iHvlRisbxaj-14" style="edgeStyle=orthogonalEdgeStyle;rounded=0;orthogonalLoop=1;jettySize=auto;html=1;exitX=0.5;exitY=1;exitDx=0;exitDy=0;entryX=0.5;entryY=0;entryDx=0;entryDy=0;" edge="1" parent="1" source="PJBWQAxb6iHvlRisbxaj-15" target="PJBWQAxb6iHvlRisbxaj-44">
          <mxGeometry relative="1" as="geometry">
            <Array as="points">
              <mxPoint x="514" y="1230" />
              <mxPoint x="200" y="1230" />
            </Array>
          </mxGeometry>
        </mxCell>
        <mxCell id="PJBWQAxb6iHvlRisbxaj-15" value="Вернуть n" style="rounded=0;whiteSpace=wrap;html=1;" vertex="1" parent="1">
          <mxGeometry x="454" y="500" width="120" height="60" as="geometry" />
        </mxCell>
        <mxCell id="PJBWQAxb6iHvlRisbxaj-24" value="Да" style="edgeLabel;html=1;align=center;verticalAlign=middle;resizable=0;points=[];" vertex="1" connectable="0" parent="1">
          <mxGeometry x="502.0588235294115" y="355" as="geometry">
            <mxPoint x="-109" y="-80" as="offset" />
          </mxGeometry>
        </mxCell>
        <mxCell id="PJBWQAxb6iHvlRisbxaj-25" style="edgeStyle=orthogonalEdgeStyle;rounded=0;orthogonalLoop=1;jettySize=auto;html=1;exitX=0.5;exitY=1;exitDx=0;exitDy=0;entryX=0.5;entryY=0;entryDx=0;entryDy=0;" edge="1" parent="1" source="PJBWQAxb6iHvlRisbxaj-26" target="PJBWQAxb6iHvlRisbxaj-44">
          <mxGeometry relative="1" as="geometry">
            <Array as="points">
              <mxPoint x="320" y="1230" />
              <mxPoint x="200" y="1230" />
            </Array>
          </mxGeometry>
        </mxCell>
        <mxCell id="PJBWQAxb6iHvlRisbxaj-26" value="Вернуть m" style="rounded=0;whiteSpace=wrap;html=1;" vertex="1" parent="1">
          <mxGeometry x="260" y="500" width="120" height="60" as="geometry" />
        </mxCell>
        <mxCell id="PJBWQAxb6iHvlRisbxaj-27" style="edgeStyle=orthogonalEdgeStyle;rounded=0;orthogonalLoop=1;jettySize=auto;html=1;exitX=1;exitY=0.5;exitDx=0;exitDy=0;entryX=0.5;entryY=0;entryDx=0;entryDy=0;" edge="1" parent="1" source="PJBWQAxb6iHvlRisbxaj-29" target="PJBWQAxb6iHvlRisbxaj-31">
          <mxGeometry relative="1" as="geometry" />
        </mxCell>
        <mxCell id="PJBWQAxb6iHvlRisbxaj-28" style="edgeStyle=orthogonalEdgeStyle;rounded=0;orthogonalLoop=1;jettySize=auto;html=1;exitX=0;exitY=0.5;exitDx=0;exitDy=0;entryX=0.5;entryY=0;entryDx=0;entryDy=0;" edge="1" parent="1" source="PJBWQAxb6iHvlRisbxaj-29" target="PJBWQAxb6iHvlRisbxaj-33">
          <mxGeometry relative="1" as="geometry" />
        </mxCell>
        <mxCell id="PJBWQAxb6iHvlRisbxaj-29" value="S1[i - 1]&amp;nbsp; != s2[j - 1]" style="rhombus;whiteSpace=wrap;html=1;" vertex="1" parent="1">
          <mxGeometry x="-45" y="310" width="130" height="100" as="geometry" />
        </mxCell>
        <mxCell id="PJBWQAxb6iHvlRisbxaj-30" style="edgeStyle=orthogonalEdgeStyle;rounded=0;orthogonalLoop=1;jettySize=auto;html=1;exitX=0.5;exitY=1;exitDx=0;exitDy=0;entryX=0.5;entryY=0;entryDx=0;entryDy=0;" edge="1" parent="1" source="PJBWQAxb6iHvlRisbxaj-31" target="PJBWQAxb6iHvlRisbxaj-36">
          <mxGeometry relative="1" as="geometry">
            <mxPoint x="20" y="900" as="targetPoint" />
          </mxGeometry>
        </mxCell>
        <mxCell id="PJBWQAxb6iHvlRisbxaj-31" value="change = 1" style="rounded=0;whiteSpace=wrap;html=1;" vertex="1" parent="1">
          <mxGeometry x="90" y="405" width="120" height="60" as="geometry" />
        </mxCell>
        <mxCell id="PJBWQAxb6iHvlRisbxaj-32" style="edgeStyle=orthogonalEdgeStyle;rounded=0;orthogonalLoop=1;jettySize=auto;html=1;exitX=0.5;exitY=1;exitDx=0;exitDy=0;" edge="1" parent="1" source="PJBWQAxb6iHvlRisbxaj-33" target="PJBWQAxb6iHvlRisbxaj-36">
          <mxGeometry relative="1" as="geometry" />
        </mxCell>
        <mxCell id="PJBWQAxb6iHvlRisbxaj-33" value="change = 0" style="rounded=0;whiteSpace=wrap;html=1;" vertex="1" parent="1">
          <mxGeometry x="-165" y="405" width="120" height="60" as="geometry" />
        </mxCell>
        <mxCell id="PJBWQAxb6iHvlRisbxaj-34" value="Да" style="edgeLabel;html=1;align=center;verticalAlign=middle;resizable=0;points=[];" vertex="1" connectable="0" parent="1">
          <mxGeometry x="130" y="339.99588235294095" as="geometry" />
        </mxCell>
        <mxCell id="kTRWSL3kXcwIFXcl1aaP-4" style="edgeStyle=orthogonalEdgeStyle;rounded=0;orthogonalLoop=1;jettySize=auto;html=1;exitX=0.5;exitY=1;exitDx=0;exitDy=0;entryX=0.5;entryY=0;entryDx=0;entryDy=0;" edge="1" parent="1" source="PJBWQAxb6iHvlRisbxaj-36" target="kTRWSL3kXcwIFXcl1aaP-1">
          <mxGeometry relative="1" as="geometry" />
        </mxCell>
        <mxCell id="PJBWQAxb6iHvlRisbxaj-36" value="ret = min(matrix[i - 1][j] + 1, &lt;br&gt;matrix[i][j - 1] + 1, &lt;br&gt;matrix[i - 1][j - 1] + change)" style="rounded=0;whiteSpace=wrap;html=1;" vertex="1" parent="1">
          <mxGeometry x="-80" y="520" width="180" height="90" as="geometry" />
        </mxCell>
        <mxCell id="PJBWQAxb6iHvlRisbxaj-37" style="edgeStyle=orthogonalEdgeStyle;rounded=0;orthogonalLoop=1;jettySize=auto;html=1;exitX=1;exitY=0.5;exitDx=0;exitDy=0;entryX=0.5;entryY=0;entryDx=0;entryDy=0;" edge="1" parent="1" source="PJBWQAxb6iHvlRisbxaj-39" target="PJBWQAxb6iHvlRisbxaj-43">
          <mxGeometry relative="1" as="geometry" />
        </mxCell>
        <mxCell id="PJBWQAxb6iHvlRisbxaj-38" style="edgeStyle=orthogonalEdgeStyle;rounded=0;orthogonalLoop=1;jettySize=auto;html=1;exitX=0;exitY=0.5;exitDx=0;exitDy=0;entryX=0.5;entryY=0;entryDx=0;entryDy=0;" edge="1" parent="1" source="PJBWQAxb6iHvlRisbxaj-39" target="PJBWQAxb6iHvlRisbxaj-41">
          <mxGeometry relative="1" as="geometry" />
        </mxCell>
        <mxCell id="PJBWQAxb6iHvlRisbxaj-39" value="(i &amp;gt; 1 и j &amp;gt; 1),&lt;br&gt;s1[i - 1] == s2[j - 2], &lt;br&gt;str1[i-2] == str2[j-1]" style="rhombus;whiteSpace=wrap;html=1;" vertex="1" parent="1">
          <mxGeometry x="-85" y="990" width="190" height="120" as="geometry" />
        </mxCell>
        <mxCell id="kTRWSL3kXcwIFXcl1aaP-11" style="edgeStyle=orthogonalEdgeStyle;rounded=0;orthogonalLoop=1;jettySize=auto;html=1;exitX=0.5;exitY=1;exitDx=0;exitDy=0;entryX=0.5;entryY=0;entryDx=0;entryDy=0;" edge="1" parent="1" source="PJBWQAxb6iHvlRisbxaj-41" target="PJBWQAxb6iHvlRisbxaj-44">
          <mxGeometry relative="1" as="geometry">
            <Array as="points">
              <mxPoint x="-130" y="1230" />
              <mxPoint x="200" y="1230" />
            </Array>
          </mxGeometry>
        </mxCell>
        <mxCell id="PJBWQAxb6iHvlRisbxaj-41" value="Вернуть ret" style="rounded=0;whiteSpace=wrap;html=1;" vertex="1" parent="1">
          <mxGeometry x="-190" y="1110" width="120" height="60" as="geometry" />
        </mxCell>
        <mxCell id="kTRWSL3kXcwIFXcl1aaP-10" style="edgeStyle=orthogonalEdgeStyle;rounded=0;orthogonalLoop=1;jettySize=auto;html=1;exitX=0.5;exitY=1;exitDx=0;exitDy=0;entryX=0.5;entryY=0;entryDx=0;entryDy=0;" edge="1" parent="1" source="PJBWQAxb6iHvlRisbxaj-43" target="PJBWQAxb6iHvlRisbxaj-44">
          <mxGeometry relative="1" as="geometry">
            <Array as="points">
              <mxPoint x="150" y="1230" />
              <mxPoint x="200" y="1230" />
            </Array>
          </mxGeometry>
        </mxCell>
        <mxCell id="PJBWQAxb6iHvlRisbxaj-43" value="Вернуть &lt;br&gt;min(ret, matrix[i-2][j-2] + 1" style="rounded=0;whiteSpace=wrap;html=1;" vertex="1" parent="1">
          <mxGeometry x="90" y="1110" width="120" height="60" as="geometry" />
        </mxCell>
        <mxCell id="PJBWQAxb6iHvlRisbxaj-44" value="Конец" style="rounded=1;whiteSpace=wrap;html=1;fontSize=12;glass=0;strokeWidth=1;shadow=0;" vertex="1" parent="1">
          <mxGeometry x="140" y="1260" width="120" height="40" as="geometry" />
        </mxCell>
        <mxCell id="kTRWSL3kXcwIFXcl1aaP-5" style="edgeStyle=orthogonalEdgeStyle;rounded=0;orthogonalLoop=1;jettySize=auto;html=1;exitX=0.5;exitY=1;exitDx=0;exitDy=0;entryX=0.5;entryY=0;entryDx=0;entryDy=0;" edge="1" parent="1" source="kTRWSL3kXcwIFXcl1aaP-1" target="kTRWSL3kXcwIFXcl1aaP-2">
          <mxGeometry relative="1" as="geometry" />
        </mxCell>
        <mxCell id="kTRWSL3kXcwIFXcl1aaP-1" value="min1 = &lt;br&gt;Д_Л(s1, s2[m - 1]) + 1" style="rounded=0;whiteSpace=wrap;html=1;" vertex="1" parent="1">
          <mxGeometry x="-70" y="660" width="160" height="60" as="geometry" />
        </mxCell>
        <mxCell id="kTRWSL3kXcwIFXcl1aaP-6" style="edgeStyle=orthogonalEdgeStyle;rounded=0;orthogonalLoop=1;jettySize=auto;html=1;exitX=0.5;exitY=1;exitDx=0;exitDy=0;entryX=0.5;entryY=0;entryDx=0;entryDy=0;" edge="1" parent="1" source="kTRWSL3kXcwIFXcl1aaP-2" target="kTRWSL3kXcwIFXcl1aaP-3">
          <mxGeometry relative="1" as="geometry" />
        </mxCell>
        <mxCell id="kTRWSL3kXcwIFXcl1aaP-2" value="min2 = &lt;br&gt;Д_Л(s1[n - 1], s2) + 1" style="rounded=0;whiteSpace=wrap;html=1;" vertex="1" parent="1">
          <mxGeometry x="-70" y="740" width="160" height="60" as="geometry" />
        </mxCell>
        <mxCell id="kTRWSL3kXcwIFXcl1aaP-8" style="edgeStyle=orthogonalEdgeStyle;rounded=0;orthogonalLoop=1;jettySize=auto;html=1;exitX=0.5;exitY=1;exitDx=0;exitDy=0;entryX=0.5;entryY=0;entryDx=0;entryDy=0;" edge="1" parent="1" source="kTRWSL3kXcwIFXcl1aaP-3" target="kTRWSL3kXcwIFXcl1aaP-7">
          <mxGeometry relative="1" as="geometry" />
        </mxCell>
        <mxCell id="kTRWSL3kXcwIFXcl1aaP-3" value="min3 = &lt;br&gt;Д_Л(s1[n - 1]&lt;br&gt;, s2[m - 1]) + change" style="rounded=0;whiteSpace=wrap;html=1;" vertex="1" parent="1">
          <mxGeometry x="-70" y="820" width="160" height="60" as="geometry" />
        </mxCell>
        <mxCell id="kTRWSL3kXcwIFXcl1aaP-7" value="ret = min (min1, min2, min3)" style="rounded=0;whiteSpace=wrap;html=1;" vertex="1" parent="1">
          <mxGeometry x="-50" y="910" width="120" height="60" as="geometry" />
        </mxCell>
        <mxCell id="kTRWSL3kXcwIFXcl1aaP-9" value="Да" style="edgeLabel;html=1;align=center;verticalAlign=middle;resizable=0;points=[];" vertex="1" connectable="0" parent="1">
          <mxGeometry x="105" y="729.995882352941" as="geometry">
            <mxPoint x="34" y="302" as="offset" />
          </mxGeometry>
        </mxCell>
      </root>
    </mxGraphModel>
  </diagram>
  <diagram id="c-WDeliplKEb3XMaPgzb" name="DL cash">
    <mxGraphModel dx="1497" dy="887" grid="1" gridSize="10" guides="1" tooltips="1" connect="1" arrows="1" fold="1" page="1" pageScale="1" pageWidth="827" pageHeight="1169" math="0" shadow="0">
      <root>
        <mxCell id="0" />
        <mxCell id="1" parent="0" />
        <mxCell id="Zqe7Q3x2OaJE61hak7YG-1" value="" style="rounded=0;html=1;jettySize=auto;orthogonalLoop=1;fontSize=11;endArrow=block;endFill=0;endSize=8;strokeWidth=1;shadow=0;labelBackgroundColor=none;edgeStyle=orthogonalEdgeStyle;" edge="1" parent="1" source="Zqe7Q3x2OaJE61hak7YG-2" target="Zqe7Q3x2OaJE61hak7YG-4">
          <mxGeometry relative="1" as="geometry" />
        </mxCell>
        <mxCell id="Zqe7Q3x2OaJE61hak7YG-2" value="Начало" style="rounded=1;whiteSpace=wrap;html=1;fontSize=12;glass=0;strokeWidth=1;shadow=0;" vertex="1" parent="1">
          <mxGeometry x="160" y="80" width="120" height="40" as="geometry" />
        </mxCell>
        <mxCell id="Zqe7Q3x2OaJE61hak7YG-3" style="edgeStyle=orthogonalEdgeStyle;rounded=0;orthogonalLoop=1;jettySize=auto;html=1;exitX=0.5;exitY=1;exitDx=0;exitDy=0;" edge="1" parent="1" source="Zqe7Q3x2OaJE61hak7YG-4" target="Zqe7Q3x2OaJE61hak7YG-7">
          <mxGeometry relative="1" as="geometry" />
        </mxCell>
        <mxCell id="Zqe7Q3x2OaJE61hak7YG-4" value="n = длина s1&lt;br&gt;m = длина s2" style="rhombus;whiteSpace=wrap;html=1;shadow=0;fontFamily=Helvetica;fontSize=12;align=center;strokeWidth=1;spacing=6;spacingTop=-4;" vertex="1" parent="1">
          <mxGeometry x="170" y="140" width="100" height="80" as="geometry" />
        </mxCell>
        <mxCell id="Zqe7Q3x2OaJE61hak7YG-5" style="edgeStyle=orthogonalEdgeStyle;rounded=0;orthogonalLoop=1;jettySize=auto;html=1;exitX=1;exitY=0.5;exitDx=0;exitDy=0;entryX=0.5;entryY=0;entryDx=0;entryDy=0;" edge="1" parent="1" source="Zqe7Q3x2OaJE61hak7YG-7" target="Zqe7Q3x2OaJE61hak7YG-11">
          <mxGeometry relative="1" as="geometry" />
        </mxCell>
        <mxCell id="Zqe7Q3x2OaJE61hak7YG-6" style="edgeStyle=orthogonalEdgeStyle;rounded=0;orthogonalLoop=1;jettySize=auto;html=1;exitX=0;exitY=0.5;exitDx=0;exitDy=0;entryX=0.5;entryY=0;entryDx=0;entryDy=0;" edge="1" parent="1" source="Zqe7Q3x2OaJE61hak7YG-7" target="Zqe7Q3x2OaJE61hak7YG-16">
          <mxGeometry relative="1" as="geometry" />
        </mxCell>
        <mxCell id="Zqe7Q3x2OaJE61hak7YG-7" value="n == 0&amp;nbsp;&lt;br&gt;или m == 0" style="rhombus;whiteSpace=wrap;html=1;shadow=0;fontFamily=Helvetica;fontSize=12;align=center;strokeWidth=1;spacing=6;spacingTop=-4;" vertex="1" parent="1">
          <mxGeometry x="170" y="250" width="100" height="80" as="geometry" />
        </mxCell>
        <mxCell id="Zqe7Q3x2OaJE61hak7YG-8" style="edgeStyle=orthogonalEdgeStyle;rounded=0;orthogonalLoop=1;jettySize=auto;html=1;exitX=0;exitY=0.5;exitDx=0;exitDy=0;entryX=0.5;entryY=0;entryDx=0;entryDy=0;" edge="1" parent="1" source="Zqe7Q3x2OaJE61hak7YG-11" target="Zqe7Q3x2OaJE61hak7YG-13">
          <mxGeometry relative="1" as="geometry" />
        </mxCell>
        <mxCell id="Zqe7Q3x2OaJE61hak7YG-9" style="edgeStyle=orthogonalEdgeStyle;rounded=0;orthogonalLoop=1;jettySize=auto;html=1;exitX=1;exitY=0.5;exitDx=0;exitDy=0;" edge="1" parent="1" source="Zqe7Q3x2OaJE61hak7YG-11" target="Zqe7Q3x2OaJE61hak7YG-14">
          <mxGeometry relative="1" as="geometry" />
        </mxCell>
        <mxCell id="Zqe7Q3x2OaJE61hak7YG-10" value="Да" style="edgeLabel;html=1;align=center;verticalAlign=middle;resizable=0;points=[];" vertex="1" connectable="0" parent="Zqe7Q3x2OaJE61hak7YG-9">
          <mxGeometry x="-0.1767" y="2" relative="1" as="geometry">
            <mxPoint x="-16" y="-40" as="offset" />
          </mxGeometry>
        </mxCell>
        <mxCell id="Zqe7Q3x2OaJE61hak7YG-11" value="n != 0" style="rhombus;whiteSpace=wrap;html=1;" vertex="1" parent="1">
          <mxGeometry x="374" y="320" width="80" height="70" as="geometry" />
        </mxCell>
        <mxCell id="Zqe7Q3x2OaJE61hak7YG-12" style="edgeStyle=orthogonalEdgeStyle;rounded=0;orthogonalLoop=1;jettySize=auto;html=1;exitX=0.5;exitY=1;exitDx=0;exitDy=0;entryX=0.5;entryY=0;entryDx=0;entryDy=0;" edge="1" parent="1" source="Zqe7Q3x2OaJE61hak7YG-13" target="Zqe7Q3x2OaJE61hak7YG-23">
          <mxGeometry relative="1" as="geometry" />
        </mxCell>
        <mxCell id="Zqe7Q3x2OaJE61hak7YG-13" value="m != 0" style="rhombus;whiteSpace=wrap;html=1;" vertex="1" parent="1">
          <mxGeometry x="280" y="400" width="80" height="70" as="geometry" />
        </mxCell>
        <mxCell id="Zqe7Q3x2OaJE61hak7YG-30" style="edgeStyle=orthogonalEdgeStyle;rounded=0;orthogonalLoop=1;jettySize=auto;html=1;exitX=0.5;exitY=1;exitDx=0;exitDy=0;entryX=0.5;entryY=0;entryDx=0;entryDy=0;" edge="1" parent="1" source="Zqe7Q3x2OaJE61hak7YG-14" target="Zqe7Q3x2OaJE61hak7YG-27">
          <mxGeometry relative="1" as="geometry">
            <Array as="points">
              <mxPoint x="514" y="600" />
              <mxPoint x="220" y="600" />
            </Array>
          </mxGeometry>
        </mxCell>
        <mxCell id="Zqe7Q3x2OaJE61hak7YG-14" value="Вернуть n" style="rounded=0;whiteSpace=wrap;html=1;" vertex="1" parent="1">
          <mxGeometry x="454" y="500" width="120" height="60" as="geometry" />
        </mxCell>
        <mxCell id="Zqe7Q3x2OaJE61hak7YG-15" style="edgeStyle=orthogonalEdgeStyle;rounded=0;orthogonalLoop=1;jettySize=auto;html=1;exitX=0.5;exitY=1;exitDx=0;exitDy=0;entryX=0.5;entryY=0;entryDx=0;entryDy=0;" edge="1" parent="1" source="Zqe7Q3x2OaJE61hak7YG-16">
          <mxGeometry relative="1" as="geometry">
            <mxPoint x="20" y="430" as="targetPoint" />
          </mxGeometry>
        </mxCell>
        <mxCell id="Zqe7Q3x2OaJE61hak7YG-16" value="Создать матрицу matrix[n + 1][m + 1]" style="rhombus;whiteSpace=wrap;html=1;" vertex="1" parent="1">
          <mxGeometry x="-50" y="320" width="140" height="90" as="geometry" />
        </mxCell>
        <mxCell id="Zqe7Q3x2OaJE61hak7YG-22" value="Да" style="edgeLabel;html=1;align=center;verticalAlign=middle;resizable=0;points=[];" vertex="1" connectable="0" parent="1">
          <mxGeometry x="502.0588235294115" y="355" as="geometry">
            <mxPoint x="-109" y="-80" as="offset" />
          </mxGeometry>
        </mxCell>
        <mxCell id="Zqe7Q3x2OaJE61hak7YG-29" style="edgeStyle=orthogonalEdgeStyle;rounded=0;orthogonalLoop=1;jettySize=auto;html=1;exitX=0.5;exitY=1;exitDx=0;exitDy=0;entryX=0.5;entryY=0;entryDx=0;entryDy=0;" edge="1" parent="1" source="Zqe7Q3x2OaJE61hak7YG-23" target="Zqe7Q3x2OaJE61hak7YG-27">
          <mxGeometry relative="1" as="geometry">
            <Array as="points">
              <mxPoint x="320" y="600" />
              <mxPoint x="220" y="600" />
            </Array>
          </mxGeometry>
        </mxCell>
        <mxCell id="Zqe7Q3x2OaJE61hak7YG-23" value="Вернуть m" style="rounded=0;whiteSpace=wrap;html=1;" vertex="1" parent="1">
          <mxGeometry x="260" y="500" width="120" height="60" as="geometry" />
        </mxCell>
        <mxCell id="Zqe7Q3x2OaJE61hak7YG-26" style="edgeStyle=orthogonalEdgeStyle;rounded=0;orthogonalLoop=1;jettySize=auto;html=1;exitX=0.5;exitY=1;exitDx=0;exitDy=0;entryX=0.5;entryY=0;entryDx=0;entryDy=0;" edge="1" parent="1" source="Zqe7Q3x2OaJE61hak7YG-24" target="Zqe7Q3x2OaJE61hak7YG-25">
          <mxGeometry relative="1" as="geometry" />
        </mxCell>
        <mxCell id="Zqe7Q3x2OaJE61hak7YG-24" value="Подпрограмма recursive(str1, str2, n, m, matrix)" style="rounded=0;whiteSpace=wrap;html=1;" vertex="1" parent="1">
          <mxGeometry x="-40" y="430" width="120" height="60" as="geometry" />
        </mxCell>
        <mxCell id="Zqe7Q3x2OaJE61hak7YG-28" style="edgeStyle=orthogonalEdgeStyle;rounded=0;orthogonalLoop=1;jettySize=auto;html=1;exitX=0.5;exitY=1;exitDx=0;exitDy=0;" edge="1" parent="1" source="Zqe7Q3x2OaJE61hak7YG-25" target="Zqe7Q3x2OaJE61hak7YG-27">
          <mxGeometry relative="1" as="geometry" />
        </mxCell>
        <mxCell id="Zqe7Q3x2OaJE61hak7YG-25" value="Вернуть matrix[m][n]" style="rounded=0;whiteSpace=wrap;html=1;" vertex="1" parent="1">
          <mxGeometry x="-40" y="520" width="120" height="60" as="geometry" />
        </mxCell>
        <mxCell id="Zqe7Q3x2OaJE61hak7YG-27" value="Конец" style="rounded=1;whiteSpace=wrap;html=1;" vertex="1" parent="1">
          <mxGeometry x="160" y="620" width="120" height="60" as="geometry" />
        </mxCell>
      </root>
    </mxGraphModel>
  </diagram>
  <diagram id="RrgN1fE3AdQNph2W0b-Q" name="Recursive">
    <mxGraphModel dx="1452" dy="828" grid="1" gridSize="10" guides="1" tooltips="1" connect="1" arrows="1" fold="1" page="1" pageScale="1" pageWidth="827" pageHeight="1169" math="0" shadow="0">
      <root>
        <mxCell id="0" />
        <mxCell id="1" parent="0" />
        <mxCell id="gEdiczfM7d5IU3SaBCDi-5" style="edgeStyle=orthogonalEdgeStyle;rounded=0;orthogonalLoop=1;jettySize=auto;html=1;exitX=0.5;exitY=1;exitDx=0;exitDy=0;entryX=0.5;entryY=0;entryDx=0;entryDy=0;" edge="1" parent="1" source="gEdiczfM7d5IU3SaBCDi-1" target="gEdiczfM7d5IU3SaBCDi-4">
          <mxGeometry relative="1" as="geometry" />
        </mxCell>
        <mxCell id="gEdiczfM7d5IU3SaBCDi-1" value="Начало" style="rounded=1;whiteSpace=wrap;html=1;fontSize=12;glass=0;strokeWidth=1;shadow=0;" vertex="1" parent="1">
          <mxGeometry x="210" y="50" width="120" height="40" as="geometry" />
        </mxCell>
        <mxCell id="gEdiczfM7d5IU3SaBCDi-2" value="" style="strokeWidth=2;html=1;shape=mxgraph.flowchart.annotation_2;align=left;labelPosition=right;pointerEvents=1;" vertex="1" parent="1">
          <mxGeometry x="330" y="20" width="50" height="100" as="geometry" />
        </mxCell>
        <mxCell id="gEdiczfM7d5IU3SaBCDi-3" value="str1&lt;br&gt;str2&lt;br&gt;n&lt;br&gt;m&lt;br&gt;matrix" style="text;html=1;align=center;verticalAlign=middle;resizable=0;points=[];autosize=1;strokeColor=none;fillColor=none;" vertex="1" parent="1">
          <mxGeometry x="360" y="25" width="60" height="90" as="geometry" />
        </mxCell>
        <mxCell id="gEdiczfM7d5IU3SaBCDi-9" style="edgeStyle=orthogonalEdgeStyle;rounded=0;orthogonalLoop=1;jettySize=auto;html=1;exitX=0;exitY=0.5;exitDx=0;exitDy=0;entryX=0.5;entryY=0;entryDx=0;entryDy=0;" edge="1" parent="1" source="gEdiczfM7d5IU3SaBCDi-4" target="gEdiczfM7d5IU3SaBCDi-6">
          <mxGeometry relative="1" as="geometry" />
        </mxCell>
        <mxCell id="luihXG0SqZ2W-Y-GALpb-12" style="edgeStyle=orthogonalEdgeStyle;rounded=0;orthogonalLoop=1;jettySize=auto;html=1;exitX=1;exitY=0.5;exitDx=0;exitDy=0;entryX=0.5;entryY=0;entryDx=0;entryDy=0;" edge="1" parent="1" source="gEdiczfM7d5IU3SaBCDi-4" target="luihXG0SqZ2W-Y-GALpb-6">
          <mxGeometry relative="1" as="geometry">
            <Array as="points">
              <mxPoint x="400" y="190" />
              <mxPoint x="400" y="1230" />
              <mxPoint x="-30" y="1230" />
            </Array>
          </mxGeometry>
        </mxCell>
        <mxCell id="gEdiczfM7d5IU3SaBCDi-4" value="matrix[n][m] != -1" style="rhombus;whiteSpace=wrap;html=1;" vertex="1" parent="1">
          <mxGeometry x="215" y="140" width="110" height="100" as="geometry" />
        </mxCell>
        <mxCell id="gEdiczfM7d5IU3SaBCDi-8" style="edgeStyle=orthogonalEdgeStyle;rounded=0;orthogonalLoop=1;jettySize=auto;html=1;exitX=1;exitY=0.5;exitDx=0;exitDy=0;" edge="1" parent="1" source="gEdiczfM7d5IU3SaBCDi-6" target="gEdiczfM7d5IU3SaBCDi-7">
          <mxGeometry relative="1" as="geometry" />
        </mxCell>
        <mxCell id="gEdiczfM7d5IU3SaBCDi-15" style="edgeStyle=orthogonalEdgeStyle;rounded=0;orthogonalLoop=1;jettySize=auto;html=1;exitX=0;exitY=0.5;exitDx=0;exitDy=0;entryX=0.5;entryY=0;entryDx=0;entryDy=0;" edge="1" parent="1" source="gEdiczfM7d5IU3SaBCDi-6" target="gEdiczfM7d5IU3SaBCDi-11">
          <mxGeometry relative="1" as="geometry" />
        </mxCell>
        <mxCell id="gEdiczfM7d5IU3SaBCDi-6" value="n == 0" style="rhombus;whiteSpace=wrap;html=1;" vertex="1" parent="1">
          <mxGeometry x="100" y="230" width="90" height="80" as="geometry" />
        </mxCell>
        <mxCell id="luihXG0SqZ2W-Y-GALpb-13" style="edgeStyle=orthogonalEdgeStyle;rounded=0;orthogonalLoop=1;jettySize=auto;html=1;exitX=0.5;exitY=1;exitDx=0;exitDy=0;entryX=0.5;entryY=0;entryDx=0;entryDy=0;" edge="1" parent="1" source="gEdiczfM7d5IU3SaBCDi-7" target="luihXG0SqZ2W-Y-GALpb-6">
          <mxGeometry relative="1" as="geometry">
            <mxPoint x="-30" y="1240" as="targetPoint" />
            <Array as="points">
              <mxPoint x="250" y="390" />
              <mxPoint x="400" y="390" />
              <mxPoint x="400" y="1230" />
              <mxPoint x="-30" y="1230" />
            </Array>
          </mxGeometry>
        </mxCell>
        <mxCell id="gEdiczfM7d5IU3SaBCDi-7" value="matrix[n][m] = m" style="rounded=0;whiteSpace=wrap;html=1;" vertex="1" parent="1">
          <mxGeometry x="190" y="300" width="120" height="60" as="geometry" />
        </mxCell>
        <mxCell id="gEdiczfM7d5IU3SaBCDi-10" value="Да" style="text;html=1;align=center;verticalAlign=middle;resizable=0;points=[];autosize=1;strokeColor=none;fillColor=none;" vertex="1" parent="1">
          <mxGeometry x="215" y="240" width="40" height="30" as="geometry" />
        </mxCell>
        <mxCell id="gEdiczfM7d5IU3SaBCDi-13" style="edgeStyle=orthogonalEdgeStyle;rounded=0;orthogonalLoop=1;jettySize=auto;html=1;exitX=1;exitY=0.5;exitDx=0;exitDy=0;" edge="1" parent="1" source="gEdiczfM7d5IU3SaBCDi-11" target="gEdiczfM7d5IU3SaBCDi-12">
          <mxGeometry relative="1" as="geometry" />
        </mxCell>
        <mxCell id="gEdiczfM7d5IU3SaBCDi-18" style="edgeStyle=orthogonalEdgeStyle;rounded=0;orthogonalLoop=1;jettySize=auto;html=1;exitX=0;exitY=0.5;exitDx=0;exitDy=0;entryX=0.5;entryY=0;entryDx=0;entryDy=0;" edge="1" parent="1" source="gEdiczfM7d5IU3SaBCDi-11" target="gEdiczfM7d5IU3SaBCDi-16">
          <mxGeometry relative="1" as="geometry" />
        </mxCell>
        <mxCell id="gEdiczfM7d5IU3SaBCDi-11" value="n &amp;gt; 0&lt;br&gt;m == 0" style="rhombus;whiteSpace=wrap;html=1;" vertex="1" parent="1">
          <mxGeometry x="-10" y="300" width="100" height="80" as="geometry" />
        </mxCell>
        <mxCell id="luihXG0SqZ2W-Y-GALpb-14" style="edgeStyle=orthogonalEdgeStyle;rounded=0;orthogonalLoop=1;jettySize=auto;html=1;exitX=0.5;exitY=1;exitDx=0;exitDy=0;entryX=0.5;entryY=0;entryDx=0;entryDy=0;" edge="1" parent="1" target="luihXG0SqZ2W-Y-GALpb-6">
          <mxGeometry relative="1" as="geometry">
            <mxPoint x="160" y="450" as="sourcePoint" />
            <mxPoint x="-10" y="1260" as="targetPoint" />
            <Array as="points">
              <mxPoint x="140" y="450" />
              <mxPoint x="140" y="480" />
              <mxPoint x="400" y="480" />
              <mxPoint x="400" y="1230" />
              <mxPoint x="-30" y="1230" />
            </Array>
          </mxGeometry>
        </mxCell>
        <mxCell id="gEdiczfM7d5IU3SaBCDi-12" value="matrix[n][m] = n" style="rounded=0;whiteSpace=wrap;html=1;" vertex="1" parent="1">
          <mxGeometry x="80" y="390" width="120" height="60" as="geometry" />
        </mxCell>
        <mxCell id="gEdiczfM7d5IU3SaBCDi-14" value="Да" style="text;html=1;align=center;verticalAlign=middle;resizable=0;points=[];autosize=1;strokeColor=none;fillColor=none;" vertex="1" parent="1">
          <mxGeometry x="110" y="310" width="40" height="30" as="geometry" />
        </mxCell>
        <mxCell id="gEdiczfM7d5IU3SaBCDi-19" style="edgeStyle=orthogonalEdgeStyle;rounded=0;orthogonalLoop=1;jettySize=auto;html=1;exitX=0.5;exitY=1;exitDx=0;exitDy=0;entryX=0.5;entryY=0;entryDx=0;entryDy=0;" edge="1" parent="1" source="gEdiczfM7d5IU3SaBCDi-16" target="gEdiczfM7d5IU3SaBCDi-17">
          <mxGeometry relative="1" as="geometry" />
        </mxCell>
        <mxCell id="gEdiczfM7d5IU3SaBCDi-16" value="delete = recursive(str1, str2, n - 1, m, matrix) + 1" style="rounded=0;whiteSpace=wrap;html=1;" vertex="1" parent="1">
          <mxGeometry x="-120" y="390" width="120" height="60" as="geometry" />
        </mxCell>
        <mxCell id="6EJrO09HjROnxyk1YKWM-7" style="edgeStyle=orthogonalEdgeStyle;rounded=0;orthogonalLoop=1;jettySize=auto;html=1;exitX=0.5;exitY=1;exitDx=0;exitDy=0;entryX=0.5;entryY=0;entryDx=0;entryDy=0;" edge="1" parent="1" source="gEdiczfM7d5IU3SaBCDi-17" target="6EJrO09HjROnxyk1YKWM-3">
          <mxGeometry relative="1" as="geometry" />
        </mxCell>
        <mxCell id="gEdiczfM7d5IU3SaBCDi-17" value="add = recursive(str1, str2, n, m - 1, matrix) + 1" style="rounded=0;whiteSpace=wrap;html=1;" vertex="1" parent="1">
          <mxGeometry x="-120" y="480" width="120" height="60" as="geometry" />
        </mxCell>
        <mxCell id="6EJrO09HjROnxyk1YKWM-1" style="edgeStyle=orthogonalEdgeStyle;rounded=0;orthogonalLoop=1;jettySize=auto;html=1;exitX=1;exitY=0.5;exitDx=0;exitDy=0;entryX=0.5;entryY=0;entryDx=0;entryDy=0;" edge="1" parent="1" source="6EJrO09HjROnxyk1YKWM-3" target="6EJrO09HjROnxyk1YKWM-4">
          <mxGeometry relative="1" as="geometry" />
        </mxCell>
        <mxCell id="6EJrO09HjROnxyk1YKWM-2" style="edgeStyle=orthogonalEdgeStyle;rounded=0;orthogonalLoop=1;jettySize=auto;html=1;exitX=0;exitY=0.5;exitDx=0;exitDy=0;entryX=0.5;entryY=0;entryDx=0;entryDy=0;" edge="1" parent="1" source="6EJrO09HjROnxyk1YKWM-3" target="6EJrO09HjROnxyk1YKWM-5">
          <mxGeometry relative="1" as="geometry" />
        </mxCell>
        <mxCell id="6EJrO09HjROnxyk1YKWM-3" value="S1[in- 1]&amp;nbsp; != s2[m - 1]" style="rhombus;whiteSpace=wrap;html=1;" vertex="1" parent="1">
          <mxGeometry x="-125" y="570" width="130" height="100" as="geometry" />
        </mxCell>
        <mxCell id="6EJrO09HjROnxyk1YKWM-12" style="edgeStyle=orthogonalEdgeStyle;rounded=0;orthogonalLoop=1;jettySize=auto;html=1;exitX=0.5;exitY=1;exitDx=0;exitDy=0;" edge="1" parent="1" source="6EJrO09HjROnxyk1YKWM-4">
          <mxGeometry relative="1" as="geometry">
            <mxPoint x="-60" y="760" as="targetPoint" />
          </mxGeometry>
        </mxCell>
        <mxCell id="6EJrO09HjROnxyk1YKWM-4" value="change = 1" style="rounded=0;whiteSpace=wrap;html=1;" vertex="1" parent="1">
          <mxGeometry x="10" y="660" width="120" height="60" as="geometry" />
        </mxCell>
        <mxCell id="6EJrO09HjROnxyk1YKWM-11" style="edgeStyle=orthogonalEdgeStyle;rounded=0;orthogonalLoop=1;jettySize=auto;html=1;exitX=0.5;exitY=1;exitDx=0;exitDy=0;" edge="1" parent="1" source="6EJrO09HjROnxyk1YKWM-5" target="6EJrO09HjROnxyk1YKWM-8">
          <mxGeometry relative="1" as="geometry" />
        </mxCell>
        <mxCell id="6EJrO09HjROnxyk1YKWM-5" value="change = 0" style="rounded=0;whiteSpace=wrap;html=1;" vertex="1" parent="1">
          <mxGeometry x="-250" y="660" width="120" height="60" as="geometry" />
        </mxCell>
        <mxCell id="6EJrO09HjROnxyk1YKWM-6" value="Да" style="edgeLabel;html=1;align=center;verticalAlign=middle;resizable=0;points=[];" vertex="1" connectable="0" parent="1">
          <mxGeometry x="60" y="609.995882352941" as="geometry" />
        </mxCell>
        <mxCell id="luihXG0SqZ2W-Y-GALpb-8" style="edgeStyle=orthogonalEdgeStyle;rounded=0;orthogonalLoop=1;jettySize=auto;html=1;exitX=0.5;exitY=1;exitDx=0;exitDy=0;entryX=0.5;entryY=0;entryDx=0;entryDy=0;" edge="1" parent="1" source="6EJrO09HjROnxyk1YKWM-8" target="luihXG0SqZ2W-Y-GALpb-2">
          <mxGeometry relative="1" as="geometry" />
        </mxCell>
        <mxCell id="6EJrO09HjROnxyk1YKWM-8" value="change = recursive(str1, str2, n - 1, m - 1, matrix) + change" style="rounded=0;whiteSpace=wrap;html=1;" vertex="1" parent="1">
          <mxGeometry x="-130" y="760" width="140" height="60" as="geometry" />
        </mxCell>
        <mxCell id="luihXG0SqZ2W-Y-GALpb-1" style="edgeStyle=orthogonalEdgeStyle;rounded=0;orthogonalLoop=1;jettySize=auto;html=1;exitX=0.5;exitY=1;exitDx=0;exitDy=0;entryX=0.5;entryY=0;entryDx=0;entryDy=0;" edge="1" parent="1" source="luihXG0SqZ2W-Y-GALpb-2" target="luihXG0SqZ2W-Y-GALpb-5">
          <mxGeometry relative="1" as="geometry" />
        </mxCell>
        <mxCell id="luihXG0SqZ2W-Y-GALpb-2" value="matrix[n][m] = min(add, delete, change)" style="rounded=0;whiteSpace=wrap;html=1;" vertex="1" parent="1">
          <mxGeometry x="-130" y="840" width="140" height="70" as="geometry" />
        </mxCell>
        <mxCell id="luihXG0SqZ2W-Y-GALpb-3" style="edgeStyle=orthogonalEdgeStyle;rounded=0;orthogonalLoop=1;jettySize=auto;html=1;exitX=1;exitY=0.5;exitDx=0;exitDy=0;entryX=0.5;entryY=0;entryDx=0;entryDy=0;" edge="1" parent="1" source="luihXG0SqZ2W-Y-GALpb-5" target="luihXG0SqZ2W-Y-GALpb-7">
          <mxGeometry relative="1" as="geometry" />
        </mxCell>
        <mxCell id="luihXG0SqZ2W-Y-GALpb-4" style="edgeStyle=orthogonalEdgeStyle;rounded=0;orthogonalLoop=1;jettySize=auto;html=1;exitX=0;exitY=0.5;exitDx=0;exitDy=0;entryX=0.5;entryY=0;entryDx=0;entryDy=0;" edge="1" parent="1" source="luihXG0SqZ2W-Y-GALpb-5" target="luihXG0SqZ2W-Y-GALpb-6">
          <mxGeometry relative="1" as="geometry">
            <Array as="points">
              <mxPoint x="-220" y="990" />
              <mxPoint x="-220" y="1230" />
              <mxPoint x="-30" y="1230" />
            </Array>
          </mxGeometry>
        </mxCell>
        <mxCell id="luihXG0SqZ2W-Y-GALpb-5" value="(i &amp;gt; 1 и j &amp;gt; 1),&lt;br&gt;s1[i - 1] == s2[j - 2], &lt;br&gt;str1[i-2] == str2[j-1]" style="rhombus;whiteSpace=wrap;html=1;" vertex="1" parent="1">
          <mxGeometry x="-155" y="930" width="190" height="120" as="geometry" />
        </mxCell>
        <mxCell id="OJz6cnobbBpPDF5IJbWI-2" style="edgeStyle=orthogonalEdgeStyle;rounded=0;orthogonalLoop=1;jettySize=auto;html=1;exitX=0.5;exitY=1;exitDx=0;exitDy=0;entryX=0.5;entryY=0;entryDx=0;entryDy=0;" edge="1" parent="1" source="luihXG0SqZ2W-Y-GALpb-6" target="OJz6cnobbBpPDF5IJbWI-1">
          <mxGeometry relative="1" as="geometry" />
        </mxCell>
        <mxCell id="luihXG0SqZ2W-Y-GALpb-6" value="Вернуть matrix[n][m]" style="rounded=0;whiteSpace=wrap;html=1;" vertex="1" parent="1">
          <mxGeometry x="-90" y="1260" width="120" height="60" as="geometry" />
        </mxCell>
        <mxCell id="luihXG0SqZ2W-Y-GALpb-10" style="edgeStyle=orthogonalEdgeStyle;rounded=0;orthogonalLoop=1;jettySize=auto;html=1;exitX=0.5;exitY=1;exitDx=0;exitDy=0;entryX=0.5;entryY=0;entryDx=0;entryDy=0;" edge="1" parent="1" source="luihXG0SqZ2W-Y-GALpb-7" target="luihXG0SqZ2W-Y-GALpb-9">
          <mxGeometry relative="1" as="geometry" />
        </mxCell>
        <mxCell id="luihXG0SqZ2W-Y-GALpb-7" value="swap = recursive(str1, str2, n - 2, m - 2, matrix) + 1" style="rounded=0;whiteSpace=wrap;html=1;" vertex="1" parent="1">
          <mxGeometry x="20" y="1050" width="140" height="60" as="geometry" />
        </mxCell>
        <mxCell id="luihXG0SqZ2W-Y-GALpb-11" style="edgeStyle=orthogonalEdgeStyle;rounded=0;orthogonalLoop=1;jettySize=auto;html=1;exitX=0.5;exitY=1;exitDx=0;exitDy=0;entryX=0.5;entryY=0;entryDx=0;entryDy=0;" edge="1" parent="1" source="luihXG0SqZ2W-Y-GALpb-9" target="luihXG0SqZ2W-Y-GALpb-6">
          <mxGeometry relative="1" as="geometry" />
        </mxCell>
        <mxCell id="luihXG0SqZ2W-Y-GALpb-9" value="matrix[n][m] = min(matrix[n][m], swap)" style="rounded=0;whiteSpace=wrap;html=1;" vertex="1" parent="1">
          <mxGeometry x="20" y="1130" width="140" height="70" as="geometry" />
        </mxCell>
        <mxCell id="OJz6cnobbBpPDF5IJbWI-1" value="Конец" style="rounded=1;whiteSpace=wrap;html=1;fontSize=12;glass=0;strokeWidth=1;shadow=0;" vertex="1" parent="1">
          <mxGeometry x="-90" y="1340" width="120" height="40" as="geometry" />
        </mxCell>
      </root>
    </mxGraphModel>
  </diagram>
  <diagram id="Hfn4Abm1q_mM2MhF0oYb" name="L matrix">
    <mxGraphModel dx="1609" dy="1035" grid="1" gridSize="10" guides="1" tooltips="1" connect="1" arrows="1" fold="1" page="1" pageScale="1" pageWidth="827" pageHeight="1169" math="0" shadow="0">
      <root>
        <mxCell id="0" />
        <mxCell id="1" parent="0" />
        <mxCell id="5Yd4OX6koLcomcwBK94P-1" value="" style="rounded=0;html=1;jettySize=auto;orthogonalLoop=1;fontSize=11;endArrow=block;endFill=0;endSize=8;strokeWidth=1;shadow=0;labelBackgroundColor=none;edgeStyle=orthogonalEdgeStyle;" edge="1" parent="1" source="5Yd4OX6koLcomcwBK94P-2" target="5Yd4OX6koLcomcwBK94P-4">
          <mxGeometry relative="1" as="geometry" />
        </mxCell>
        <mxCell id="5Yd4OX6koLcomcwBK94P-2" value="Начало" style="rounded=1;whiteSpace=wrap;html=1;fontSize=12;glass=0;strokeWidth=1;shadow=0;" vertex="1" parent="1">
          <mxGeometry x="160" y="80" width="120" height="40" as="geometry" />
        </mxCell>
        <mxCell id="5Yd4OX6koLcomcwBK94P-3" style="edgeStyle=orthogonalEdgeStyle;rounded=0;orthogonalLoop=1;jettySize=auto;html=1;exitX=0.5;exitY=1;exitDx=0;exitDy=0;" edge="1" parent="1" source="5Yd4OX6koLcomcwBK94P-4" target="5Yd4OX6koLcomcwBK94P-7">
          <mxGeometry relative="1" as="geometry" />
        </mxCell>
        <mxCell id="5Yd4OX6koLcomcwBK94P-4" value="n = длина s1&lt;br&gt;m = длина s2" style="rhombus;whiteSpace=wrap;html=1;shadow=0;fontFamily=Helvetica;fontSize=12;align=center;strokeWidth=1;spacing=6;spacingTop=-4;" vertex="1" parent="1">
          <mxGeometry x="170" y="140" width="100" height="80" as="geometry" />
        </mxCell>
        <mxCell id="5Yd4OX6koLcomcwBK94P-5" style="edgeStyle=orthogonalEdgeStyle;rounded=0;orthogonalLoop=1;jettySize=auto;html=1;exitX=1;exitY=0.5;exitDx=0;exitDy=0;entryX=0.5;entryY=0;entryDx=0;entryDy=0;" edge="1" parent="1" source="5Yd4OX6koLcomcwBK94P-7" target="5Yd4OX6koLcomcwBK94P-11">
          <mxGeometry relative="1" as="geometry" />
        </mxCell>
        <mxCell id="5Yd4OX6koLcomcwBK94P-6" style="edgeStyle=orthogonalEdgeStyle;rounded=0;orthogonalLoop=1;jettySize=auto;html=1;exitX=0;exitY=0.5;exitDx=0;exitDy=0;entryX=0.5;entryY=0;entryDx=0;entryDy=0;" edge="1" parent="1" source="5Yd4OX6koLcomcwBK94P-7" target="5Yd4OX6koLcomcwBK94P-17">
          <mxGeometry relative="1" as="geometry" />
        </mxCell>
        <mxCell id="5Yd4OX6koLcomcwBK94P-7" value="n == 0&amp;nbsp;&lt;br&gt;или m == 0" style="rhombus;whiteSpace=wrap;html=1;shadow=0;fontFamily=Helvetica;fontSize=12;align=center;strokeWidth=1;spacing=6;spacingTop=-4;" vertex="1" parent="1">
          <mxGeometry x="170" y="250" width="100" height="80" as="geometry" />
        </mxCell>
        <mxCell id="5Yd4OX6koLcomcwBK94P-8" style="edgeStyle=orthogonalEdgeStyle;rounded=0;orthogonalLoop=1;jettySize=auto;html=1;exitX=0;exitY=0.5;exitDx=0;exitDy=0;entryX=0.5;entryY=0;entryDx=0;entryDy=0;" edge="1" parent="1" source="5Yd4OX6koLcomcwBK94P-11" target="5Yd4OX6koLcomcwBK94P-13">
          <mxGeometry relative="1" as="geometry" />
        </mxCell>
        <mxCell id="5Yd4OX6koLcomcwBK94P-9" style="edgeStyle=orthogonalEdgeStyle;rounded=0;orthogonalLoop=1;jettySize=auto;html=1;exitX=1;exitY=0.5;exitDx=0;exitDy=0;" edge="1" parent="1" source="5Yd4OX6koLcomcwBK94P-11" target="5Yd4OX6koLcomcwBK94P-15">
          <mxGeometry relative="1" as="geometry" />
        </mxCell>
        <mxCell id="5Yd4OX6koLcomcwBK94P-10" value="Да" style="edgeLabel;html=1;align=center;verticalAlign=middle;resizable=0;points=[];" vertex="1" connectable="0" parent="5Yd4OX6koLcomcwBK94P-9">
          <mxGeometry x="-0.1767" y="2" relative="1" as="geometry">
            <mxPoint x="-16" y="-40" as="offset" />
          </mxGeometry>
        </mxCell>
        <mxCell id="5Yd4OX6koLcomcwBK94P-11" value="n != 0" style="rhombus;whiteSpace=wrap;html=1;" vertex="1" parent="1">
          <mxGeometry x="374" y="320" width="80" height="70" as="geometry" />
        </mxCell>
        <mxCell id="5Yd4OX6koLcomcwBK94P-12" style="edgeStyle=orthogonalEdgeStyle;rounded=0;orthogonalLoop=1;jettySize=auto;html=1;exitX=0.5;exitY=1;exitDx=0;exitDy=0;entryX=0.5;entryY=0;entryDx=0;entryDy=0;" edge="1" parent="1" source="5Yd4OX6koLcomcwBK94P-13" target="5Yd4OX6koLcomcwBK94P-26">
          <mxGeometry relative="1" as="geometry" />
        </mxCell>
        <mxCell id="5Yd4OX6koLcomcwBK94P-13" value="m != 0" style="rhombus;whiteSpace=wrap;html=1;" vertex="1" parent="1">
          <mxGeometry x="280" y="400" width="80" height="70" as="geometry" />
        </mxCell>
        <mxCell id="5Yd4OX6koLcomcwBK94P-48" style="edgeStyle=orthogonalEdgeStyle;rounded=0;orthogonalLoop=1;jettySize=auto;html=1;exitX=0.5;exitY=1;exitDx=0;exitDy=0;entryX=0.5;entryY=0;entryDx=0;entryDy=0;" edge="1" parent="1" source="5Yd4OX6koLcomcwBK94P-15" target="5Yd4OX6koLcomcwBK94P-44">
          <mxGeometry relative="1" as="geometry">
            <Array as="points">
              <mxPoint x="514" y="970" />
              <mxPoint x="190" y="970" />
            </Array>
          </mxGeometry>
        </mxCell>
        <mxCell id="5Yd4OX6koLcomcwBK94P-15" value="Вернуть n" style="rounded=0;whiteSpace=wrap;html=1;" vertex="1" parent="1">
          <mxGeometry x="454" y="500" width="120" height="60" as="geometry" />
        </mxCell>
        <mxCell id="5Yd4OX6koLcomcwBK94P-16" style="edgeStyle=orthogonalEdgeStyle;rounded=0;orthogonalLoop=1;jettySize=auto;html=1;exitX=0.5;exitY=1;exitDx=0;exitDy=0;entryX=0.5;entryY=0;entryDx=0;entryDy=0;" edge="1" parent="1" source="5Yd4OX6koLcomcwBK94P-17" target="5Yd4OX6koLcomcwBK94P-20">
          <mxGeometry relative="1" as="geometry" />
        </mxCell>
        <mxCell id="5Yd4OX6koLcomcwBK94P-17" value="Создать матрицу matrix[n + 1][m + 1]" style="rhombus;whiteSpace=wrap;html=1;" vertex="1" parent="1">
          <mxGeometry x="-50" y="320" width="140" height="90" as="geometry" />
        </mxCell>
        <mxCell id="5Yd4OX6koLcomcwBK94P-18" style="edgeStyle=orthogonalEdgeStyle;rounded=0;orthogonalLoop=1;jettySize=auto;html=1;exitX=0.5;exitY=1;exitDx=0;exitDy=0;entryX=0.5;entryY=0;entryDx=0;entryDy=0;" edge="1" parent="1" source="5Yd4OX6koLcomcwBK94P-20" target="5Yd4OX6koLcomcwBK94P-23">
          <mxGeometry relative="1" as="geometry" />
        </mxCell>
        <mxCell id="5Yd4OX6koLcomcwBK94P-46" style="edgeStyle=orthogonalEdgeStyle;rounded=0;orthogonalLoop=1;jettySize=auto;html=1;exitX=0;exitY=0.5;exitDx=0;exitDy=0;entryX=0.5;entryY=0;entryDx=0;entryDy=0;" edge="1" parent="1" source="5Yd4OX6koLcomcwBK94P-20" target="5Yd4OX6koLcomcwBK94P-44">
          <mxGeometry relative="1" as="geometry">
            <Array as="points">
              <mxPoint x="-240" y="470" />
              <mxPoint x="-240" y="970" />
              <mxPoint x="190" y="970" />
            </Array>
          </mxGeometry>
        </mxCell>
        <mxCell id="5Yd4OX6koLcomcwBK94P-20" value="Цикл по i&lt;br&gt;1, n + 1" style="rhombus;whiteSpace=wrap;html=1;" vertex="1" parent="1">
          <mxGeometry x="-30" y="430" width="100" height="80" as="geometry" />
        </mxCell>
        <mxCell id="5Yd4OX6koLcomcwBK94P-21" style="edgeStyle=orthogonalEdgeStyle;rounded=0;orthogonalLoop=1;jettySize=auto;html=1;exitX=0.5;exitY=1;exitDx=0;exitDy=0;entryX=0.5;entryY=0;entryDx=0;entryDy=0;" edge="1" parent="1" source="5Yd4OX6koLcomcwBK94P-23" target="5Yd4OX6koLcomcwBK94P-29">
          <mxGeometry relative="1" as="geometry" />
        </mxCell>
        <mxCell id="5Yd4OX6koLcomcwBK94P-22" style="edgeStyle=orthogonalEdgeStyle;rounded=0;orthogonalLoop=1;jettySize=auto;html=1;exitX=1;exitY=0.5;exitDx=0;exitDy=0;entryX=1;entryY=0.5;entryDx=0;entryDy=0;" edge="1" parent="1" source="5Yd4OX6koLcomcwBK94P-23" target="5Yd4OX6koLcomcwBK94P-20">
          <mxGeometry relative="1" as="geometry">
            <Array as="points">
              <mxPoint x="110" y="570" />
              <mxPoint x="110" y="470" />
            </Array>
          </mxGeometry>
        </mxCell>
        <mxCell id="5Yd4OX6koLcomcwBK94P-23" value="Цикл по j&lt;br&gt;1, m + 1" style="rhombus;whiteSpace=wrap;html=1;" vertex="1" parent="1">
          <mxGeometry x="-30" y="530" width="100" height="80" as="geometry" />
        </mxCell>
        <mxCell id="5Yd4OX6koLcomcwBK94P-24" value="Да" style="edgeLabel;html=1;align=center;verticalAlign=middle;resizable=0;points=[];" vertex="1" connectable="0" parent="1">
          <mxGeometry x="502.0588235294115" y="355" as="geometry">
            <mxPoint x="-109" y="-80" as="offset" />
          </mxGeometry>
        </mxCell>
        <mxCell id="5Yd4OX6koLcomcwBK94P-47" style="edgeStyle=orthogonalEdgeStyle;rounded=0;orthogonalLoop=1;jettySize=auto;html=1;exitX=0.5;exitY=1;exitDx=0;exitDy=0;entryX=0.5;entryY=0;entryDx=0;entryDy=0;" edge="1" parent="1" source="5Yd4OX6koLcomcwBK94P-26" target="5Yd4OX6koLcomcwBK94P-44">
          <mxGeometry relative="1" as="geometry">
            <Array as="points">
              <mxPoint x="320" y="970" />
              <mxPoint x="190" y="970" />
            </Array>
          </mxGeometry>
        </mxCell>
        <mxCell id="5Yd4OX6koLcomcwBK94P-26" value="Вернуть m" style="rounded=0;whiteSpace=wrap;html=1;" vertex="1" parent="1">
          <mxGeometry x="260" y="500" width="120" height="60" as="geometry" />
        </mxCell>
        <mxCell id="5Yd4OX6koLcomcwBK94P-27" style="edgeStyle=orthogonalEdgeStyle;rounded=0;orthogonalLoop=1;jettySize=auto;html=1;exitX=1;exitY=0.5;exitDx=0;exitDy=0;entryX=0.5;entryY=0;entryDx=0;entryDy=0;" edge="1" parent="1" source="5Yd4OX6koLcomcwBK94P-29" target="5Yd4OX6koLcomcwBK94P-31">
          <mxGeometry relative="1" as="geometry" />
        </mxCell>
        <mxCell id="5Yd4OX6koLcomcwBK94P-28" style="edgeStyle=orthogonalEdgeStyle;rounded=0;orthogonalLoop=1;jettySize=auto;html=1;exitX=0;exitY=0.5;exitDx=0;exitDy=0;entryX=0.5;entryY=0;entryDx=0;entryDy=0;" edge="1" parent="1" source="5Yd4OX6koLcomcwBK94P-29" target="5Yd4OX6koLcomcwBK94P-33">
          <mxGeometry relative="1" as="geometry" />
        </mxCell>
        <mxCell id="5Yd4OX6koLcomcwBK94P-29" value="S1[i - 1]&amp;nbsp; != s2[j - 1]" style="rhombus;whiteSpace=wrap;html=1;" vertex="1" parent="1">
          <mxGeometry x="-45" y="630" width="130" height="100" as="geometry" />
        </mxCell>
        <mxCell id="5Yd4OX6koLcomcwBK94P-30" style="edgeStyle=orthogonalEdgeStyle;rounded=0;orthogonalLoop=1;jettySize=auto;html=1;exitX=0.5;exitY=1;exitDx=0;exitDy=0;entryX=0.5;entryY=0;entryDx=0;entryDy=0;" edge="1" parent="1" source="5Yd4OX6koLcomcwBK94P-31" target="5Yd4OX6koLcomcwBK94P-36">
          <mxGeometry relative="1" as="geometry">
            <mxPoint x="20" y="900" as="targetPoint" />
          </mxGeometry>
        </mxCell>
        <mxCell id="5Yd4OX6koLcomcwBK94P-31" value="change = 1" style="rounded=0;whiteSpace=wrap;html=1;" vertex="1" parent="1">
          <mxGeometry x="90" y="720" width="120" height="60" as="geometry" />
        </mxCell>
        <mxCell id="5Yd4OX6koLcomcwBK94P-32" style="edgeStyle=orthogonalEdgeStyle;rounded=0;orthogonalLoop=1;jettySize=auto;html=1;exitX=0.5;exitY=1;exitDx=0;exitDy=0;" edge="1" parent="1" source="5Yd4OX6koLcomcwBK94P-33" target="5Yd4OX6koLcomcwBK94P-36">
          <mxGeometry relative="1" as="geometry" />
        </mxCell>
        <mxCell id="5Yd4OX6koLcomcwBK94P-33" value="change = 0" style="rounded=0;whiteSpace=wrap;html=1;" vertex="1" parent="1">
          <mxGeometry x="-170" y="720" width="120" height="60" as="geometry" />
        </mxCell>
        <mxCell id="5Yd4OX6koLcomcwBK94P-34" value="Да" style="edgeLabel;html=1;align=center;verticalAlign=middle;resizable=0;points=[];" vertex="1" connectable="0" parent="1">
          <mxGeometry x="140" y="669.995882352941" as="geometry" />
        </mxCell>
        <mxCell id="5Yd4OX6koLcomcwBK94P-35" style="edgeStyle=orthogonalEdgeStyle;rounded=0;orthogonalLoop=1;jettySize=auto;html=1;exitX=0.5;exitY=1;exitDx=0;exitDy=0;entryX=0;entryY=0.5;entryDx=0;entryDy=0;" edge="1" parent="1" source="5Yd4OX6koLcomcwBK94P-36" target="5Yd4OX6koLcomcwBK94P-23">
          <mxGeometry relative="1" as="geometry">
            <mxPoint x="19.999999999999773" y="980" as="targetPoint" />
            <Array as="points">
              <mxPoint x="20" y="950" />
              <mxPoint x="-190" y="950" />
              <mxPoint x="-190" y="570" />
            </Array>
          </mxGeometry>
        </mxCell>
        <mxCell id="5Yd4OX6koLcomcwBK94P-36" value="ret = min(matrix[i - 1][j] + 1, &lt;br&gt;matrix[i][j - 1] + 1, &lt;br&gt;matrix[i - 1][j - 1] + change)" style="rounded=0;whiteSpace=wrap;html=1;" vertex="1" parent="1">
          <mxGeometry x="-70" y="840" width="180" height="90" as="geometry" />
        </mxCell>
        <mxCell id="5Yd4OX6koLcomcwBK94P-44" value="Конец" style="rounded=1;whiteSpace=wrap;html=1;fontSize=12;glass=0;strokeWidth=1;shadow=0;" vertex="1" parent="1">
          <mxGeometry x="130" y="990" width="120" height="40" as="geometry" />
        </mxCell>
      </root>
    </mxGraphModel>
  </diagram>
</mxfile>
